<?xml version="1.0" standalone="no"?><!DOCTYPE svg PUBLIC "-//W3C//DTD SVG 1.1//EN" "http://www.w3.org/Graphics/SVG/1.1/DTD/svg11.dtd"><svg t="1775479154631" class="icon" viewBox="0 0 1024 1024" version="1.1" xmlns="http://www.w3.org/2000/svg" p-id="7033" xmlns:xlink="http://www.w3.org/1999/xlink" width="48" height="48"><path d="M926.245 542.273c-16.625 16.625-43.958 16.625-60.583 0L762.828 439.44c-29.458 18.75-64.416 29.875-101.958 29.875-105.833 0-191.583-85.792-191.583-192 0-113.5 98.125-203.542 214.166-190.75 90.875 9.833 163.834 87.5 169.417 179.208 2.542 42.25-8.958 80.667-29.458 113.5L926.245 481.69c16.625 16.625 16.625 43.917 0 60.583zM661.287 170.648c-58.875 0-106.667 47.792-106.667 106.667s47.792 106.667 106.667 106.667 106.666-47.792 106.666-106.667-47.791-106.667-106.666-106.667z m-91.75 418.959l108.791 144.666c10.667 13.625 0.459 33.709-17.041 33.709H278.12c-17.917 0-27.709-20.5-16.625-34.584l74.25-95.125c8.541-10.666 24.75-11.125 33.291-0.458l66.542 80.25 100.25-128.875c8.542-11.083 25.625-11.083 33.709 0.417zM342.12 255.982H213.286c-23.458 0-42.666 19.208-42.666 42.666v512c0 23.459 19.208 42.667 42.666 42.667h512.001c23.458 0 42.666-19.208 42.666-42.667V639.982c0-23.5 19.209-42.667 42.667-42.667s42.667 19.167 42.667 42.667v213.333c0 46.917-38.417 85.333-85.334 85.333H170.62c-46.917 0-85.334-38.416-85.334-85.333V255.982c0-46.959 38.417-85.334 85.334-85.334h171.5c23.5 0 42.667 19.167 42.667 42.667 0 23.458-19.167 42.667-42.667 42.667z" p-id="7034" fill="#e98f36"></path></svg>