<?xml version="1.0" standalone="no"?><!DOCTYPE svg PUBLIC "-//W3C//DTD SVG 1.1//EN" "http://www.w3.org/Graphics/SVG/1.1/DTD/svg11.dtd"><svg t="1759626418290" class="icon" viewBox="0 0 1024 1024" version="1.1" xmlns="http://www.w3.org/2000/svg" p-id="7578" xmlns:xlink="http://www.w3.org/1999/xlink" width="48" height="48"><path d="M549.660444 56.888889a30.72 30.72 0 0 1 21.617778 8.988444l205.425778 205.482667c5.688889 5.688889 8.988444 13.425778 8.988444 21.560889v271.132444a244.337778 244.337778 0 0 0-316.245333 347.989334H144.327111A30.492444 30.492444 0 0 1 113.777778 881.493333V87.438222C113.777778 70.542222 127.431111 56.888889 144.327111 56.888889h405.333333zM387.811556 477.013333H212.195556a7.623111 7.623111 0 0 0-7.623112 7.68v45.795556c0 4.209778 3.413333 7.623111 7.623112 7.623111h175.616c4.209778 0 7.623111-3.413333 7.623111-7.623111V484.693333a7.623111 7.623111 0 0 0-7.623111-7.68z m190.862222-129.763555H212.195556a7.623111 7.623111 0 0 0-7.623112 7.623111v45.795555c0 4.209778 3.413333 7.623111 7.623112 7.623112h366.478222c4.209778 0 7.623111-3.413333 7.623111-7.623112v-45.795555a7.623111 7.623111 0 0 0-7.623111-7.623111z m-43.064889-219.932445v179.598223h179.655111L535.608889 127.317333z m372.394667 832.398223l-89.031112-89.031112a167.992889 167.992889 0 1 0-41.585777 38.912l90.339555 90.453334a7.395556 7.395556 0 0 0 5.347556 2.161778 7.68 7.68 0 0 0 5.347555-2.218667l29.582223-29.582222a7.566222 7.566222 0 0 0 0-10.695111z m-223.004445-83.512889a106.837333 106.837333 0 1 1 0-213.788445 106.837333 106.837333 0 1 1 0 213.788445z" fill="#0B82FF" p-id="7579"></path></svg>