<svg t="1761879202742" class="icon" viewBox="0 0 1024 1024" version="1.1" xmlns="http://www.w3.org/2000/svg" p-id="20141" width="200" height="200"><path d="M806.4 806.4h85.333333c4.266667 0 4.266667 4.266667 4.266667 4.266667v85.333333c0 4.266667-4.266667 4.266667-4.266667 4.266667h-85.333333c-4.266667 0-4.266667-4.266667-4.266667-4.266667l4.266667-89.6c-4.266667 0-4.266667 0 0 0z m-418.133333 0h89.6c4.266667 0 4.266667 4.266667 4.266666 4.266667v85.333333c0 4.266667-4.266667 4.266667-4.266666 4.266667H388.266667C384 900.266667 384 896 384 896l4.266667-89.6c-4.266667 0-4.266667 0 0 0z m-153.6 0h85.333333c4.266667 0 4.266667 4.266667 4.266667 4.266667v85.333333c0 4.266667-4.266667 4.266667-4.266667 4.266667h-85.333333c-4.266667 0-4.266667-4.266667-4.266667-4.266667l4.266667-89.6c-4.266667 0-4.266667 0 0 0z" fill="#48B982" p-id="20142"></path><path d="M648.533333 349.866667c-4.266667-64-55.466667-115.2-119.466666-115.2-12.8 0-29.866667 4.266667-38.4 8.533333 42.666667 17.066667 76.8 55.466667 76.8 106.666667h-59.733334l98.133334 140.8 98.133333-140.8h-55.466667z" fill="#FFCC00" p-id="20143"></path><path d="M763.733333 768c-12.8-12.8-25.6-21.333333-42.666666-29.866667 12.8-8.533333 25.6-12.8 34.133333-29.866666 8.533333-12.8 12.8-25.6 12.8-38.4 0-12.8-4.266667-25.6-12.8-34.133334-8.533333-12.8-12.8-17.066667-25.6-25.6-12.8-8.533333-21.333333-12.8-34.133333-12.8-12.8-4.266667-29.866667-4.266667-55.466667-4.266666h-123.733333v311.466666h106.666666c38.4 0 64 0 76.8-4.266666 17.066667 0 34.133333-8.533333 42.666667-12.8 12.8-8.533333 21.333333-17.066667 29.866667-34.133334 8.533333-12.8 12.8-29.866667 12.8-42.666666-4.266667-17.066667-12.8-29.866667-21.333334-42.666667z m-179.2-123.733333h89.6c12.8 0 17.066667 4.266667 25.6 12.8 8.533333 8.533333 8.533333 12.8 8.533334 25.6s-4.266667 17.066667-12.8 25.6c-8.533333 8.533333-12.8 12.8-25.6 12.8h-85.333334v-76.8z m119.466667 192c-8.533333 8.533333-12.8 12.8-21.333333 12.8s-21.333333 4.266667-42.666667 4.266666h-55.466667v-85.333333h51.2c29.866667 0 46.933333 0 55.466667 4.266667 8.533333 4.266667 12.8 8.533333 21.333333 12.8 8.533333 8.533333 8.533333 12.8 8.533334 25.6-4.266667 8.533333-8.533333 21.333333-17.066667 25.6z" fill="#48B982" p-id="20144"></path><path d="M311.466667 123.733333H247.466667L128 430.933333h64l25.6-72.533333H341.333333l29.866667 72.533333h68.266667l-128-307.2zM238.933333 307.2l42.666667-115.2 42.666667 115.2h-85.333334z" fill="#1890FF" p-id="20145"></path><path d="M900.266667 0H119.466667C51.2 0 0 55.466667 0 119.466667v789.333333C0 972.8 51.2 1024 119.466667 1024h785.066666c64 0 119.466667-51.2 119.466667-119.466667V119.466667C1024 55.466667 972.8 0 900.266667 0z m55.466666 874.666667c0 46.933333-38.4 85.333333-85.333333 85.333333H149.333333c-51.2 0-85.333333-38.4-85.333333-85.333333v-725.333334c0-46.933333 38.4-85.333333 85.333333-85.333333h725.333334c46.933333 0 85.333333 38.4 85.333333 85.333333l-4.266667 725.333334z" fill="#1890FF" p-id="20146"></path></svg>