<svg t="1760430141722" class="icon" viewBox="0 0 1024 1024" version="1.1" xmlns="http://www.w3.org/2000/svg" p-id="1618" width="200" height="200"><path d="M678.4 896H128V128h768v393.216c29.696 0 58.368 5.12 85.504 13.824V85.504c0-23.552-18.944-42.496-42.496-42.496H85.504c-23.552 0-42.496 18.944-42.496 42.496v853.504c0 23.552 18.944 42.496 42.496 42.496h676.352c-33.792-22.016-62.464-51.2-83.456-85.504z" p-id="1619" fill="#09c015"></path><path d="M495.616 738.304h54.784c15.36 0 27.136-12.288 27.136-27.136V355.328h136.704c15.36 0 27.136-12.288 27.136-27.136V272.896c0-15.36-12.288-27.136-27.136-27.136H331.264c-15.36 0-27.136 12.288-27.136 27.136V327.68c0 15.36 12.288 27.136 27.136 27.136h136.704v355.84c0 15.36 12.288 27.648 27.648 27.648zM1011.2 758.784H967.68V706.56c0-47.616-38.912-86.528-86.528-86.528-47.616 0-86.528 38.912-86.528 86.528v52.224h-43.52c-4.608 0-8.704 4.096-8.704 8.704v60.928c0 76.8 61.952 138.752 138.752 138.752 76.8 0 138.752-61.952 138.752-138.752v-60.928c0-4.608-4.096-8.704-8.704-8.704z m-130.048 113.152c-14.336 0-26.112-11.776-26.112-26.112s11.776-26.112 26.112-26.112 26.112 11.776 26.112 26.112-11.776 26.112-26.112 26.112z m51.712-113.152h-103.936V706.56c0-28.672 23.552-52.224 52.224-52.224s52.224 23.552 52.224 52.224v52.224z" p-id="1620" fill="#09c015"></path></svg>