<?xml version="1.0" standalone="no"?><!DOCTYPE svg PUBLIC "-//W3C//DTD SVG 1.1//EN" "http://www.w3.org/Graphics/SVG/1.1/DTD/svg11.dtd"><svg t="1762052695859" class="icon" viewBox="0 0 1024 1024" version="1.1" xmlns="http://www.w3.org/2000/svg" p-id="22552" xmlns:xlink="http://www.w3.org/1999/xlink" width="48" height="48"><path d="M447.16032 163.84h-231.424C187.06432 163.84 163.84 187.06432 163.84 215.73632v231.424c0 28.672 23.22432 51.85536 51.89632 51.85536h231.424c28.672 0 51.89632-23.18336 51.89632-51.85536v-231.424c0-28.672-23.26528-51.89632-51.89632-51.89632z m-231.424 29.61408h231.424c12.288 0 22.24128 9.99424 22.24128 22.28224v231.424c0 12.288-9.95328 22.24128-22.24128 22.24128h-231.424a22.24128 22.24128 0 0 1-22.28224-22.24128v-231.424c0-12.288 9.99424-22.28224 22.28224-22.28224zM845.33248 524.98432h-305.5616c-8.192 0-14.82752 6.63552-14.82752 14.78656v55.58272c0 8.192 6.63552 14.82752 14.82752 14.82752h305.5616c8.192 0 14.82752-6.63552 14.82752-14.82752v-55.58272c0-8.192-6.63552-14.78656-14.82752-14.78656z m-14.78656 29.61408v25.92768H554.5984v-25.92768h275.94752zM845.33248 761.07776h-305.5616c-8.192 0-14.82752 6.63552-14.82752 14.82752v55.54176c0 8.192 6.63552 14.82752 14.82752 14.82752h305.5616c8.192 0 14.82752-6.63552 14.82752-14.82752v-55.54176c0-8.192-6.63552-14.82752-14.82752-14.82752z m-14.78656 29.65504v25.92768H554.5984v-25.92768h275.94752zM845.33248 643.072h-305.5616c-8.192 0-14.82752 6.59456-14.82752 14.78656v55.58272c0 8.192 6.63552 14.78656 14.82752 14.78656h305.5616c8.192 0 14.82752-6.63552 14.82752-14.78656V657.8176c0-8.192-6.63552-14.78656-14.82752-14.78656z m-14.78656 29.57312v25.96864H554.5984v-25.96864h275.94752zM209.83808 593.26464a14.82752 14.82752 0 1 1 26.17344 13.9264 152.00256 152.00256 0 0 0 143.85152 223.0272 149.7088 149.7088 0 0 0 78.0288-27.72992 14.82752 14.82752 0 1 1 17.2032 24.12544 179.32288 179.32288 0 0 1-93.3888 33.1776 181.6576 181.6576 0 0 1-171.86816-266.52672z" fill="#dbd108" p-id="22553"></path><path d="M219.58656 573.8496a14.82752 14.82752 0 0 1 23.18336 6.38976l0.73728 2.90816 9.8304 63.6928a14.82752 14.82752 0 0 1-28.54912 7.3728l-0.73728-2.8672-5.89824-38.33856-30.22848 24.28928a14.82752 14.82752 0 0 1-18.71872-0.12288l-2.08896-2.12992a14.82752 14.82752 0 0 1 0.12288-18.71872l2.12992-2.12992 50.21696-40.3456zM639.63136 164.2496a181.6576 181.6576 0 0 1 171.74528 266.6496 14.82752 14.82752 0 1 1-26.13248-13.9264 152.00256 152.00256 0 0 0-143.72864-223.19104 149.0944 149.0944 0 0 0-78.11072 27.8528 14.82752 14.82752 0 1 1-17.32608-24.04352 178.70848 178.70848 0 0 1 93.55264-33.34144z" fill="#dbd108" p-id="22554"></path><path d="M783.03232 353.60768a14.82752 14.82752 0 0 1 16.1792 9.50272l0.73728 2.8672 5.85728 38.2976 30.26944-24.24832a14.82752 14.82752 0 0 1 18.71872 0.16384l2.08896 2.12992a14.82752 14.82752 0 0 1-0.12288 18.71872l-2.12992 2.08896-50.21696 40.3456a14.82752 14.82752 0 0 1-23.18336-6.38976l-0.73728-2.8672-9.8304-63.6928a14.82752 14.82752 0 0 1 12.36992-16.91648z" fill="#dbd108" p-id="22555"></path><path d="M921.6 0h-819.2A102.4 102.4 0 0 0 0 102.4v778.24A143.36 143.36 0 0 0 143.36 1024h778.24a102.4 102.4 0 0 0 102.4-102.4v-819.2A102.4 102.4 0 0 0 921.6 0z m-819.2 40.96h819.2A61.44 61.44 0 0 1 983.04 102.4v819.2a61.44 61.44 0 0 1-61.44 61.44h-778.24A102.4 102.4 0 0 1 40.96 880.64v-778.24A61.44 61.44 0 0 1 102.4 40.96z" fill="#dbd108" p-id="22556"></path></svg>