<?xml version="1.0" standalone="no"?><!DOCTYPE svg PUBLIC "-//W3C//DTD SVG 1.1//EN" "http://www.w3.org/Graphics/SVG/1.1/DTD/svg11.dtd"><svg t="1760674815011" class="icon" viewBox="0 0 1024 1024" version="1.1" xmlns="http://www.w3.org/2000/svg" p-id="6672" xmlns:xlink="http://www.w3.org/1999/xlink" width="200" height="200"><path d="M798.72 148.48v77.824H102.4v-77.824c0-14.336 11.264-26.624 25.6-26.624h645.12c14.336 0 25.6 12.288 25.6 26.624z" fill="#3F51B5" p-id="6673"></path><path d="M102.4 226.304h696.32V819.2H102.4z" fill="#BBDEFB" p-id="6674"></path><path d="M245.76 327.68h40.96v40.96h-40.96zM327.68 327.68h326.656v40.96H327.68zM327.68 409.6h326.656v39.936H327.68zM327.68 491.52h326.656v40.96H327.68zM654.336 574.464v22.528L636.928 614.4H327.68v-39.936zM596.992 657.408l-37.888 39.936H327.68v-39.936zM245.76 409.6h40.96v39.936h-40.96zM245.76 491.52h40.96v40.96h-40.96zM245.76 574.464h40.96V614.4h-40.96zM245.76 657.408h40.96v40.96h-40.96z" fill="#1976D2" p-id="6675"></path><path d="M506.88 798.72l244.736-245.76 93.184 93.184-244.736 240.64z" fill="#FF9800" p-id="6676"></path><path d="M751.616 552.96l45.056-43.008 95.232 93.184-47.104 43.008z" fill="#B0BEC5" p-id="6677"></path><path d="M926.72 567.296l-28.672 28.672-7.168 7.168-7.168-7.168-79.872-77.824-7.168-7.168 7.168-7.168 27.648-28.672c4.096-4.096 10.24-4.096 14.336 0l79.872 77.824c4.096 4.096 4.096 10.24 1.024 14.336z" fill="#E57373" p-id="6678"></path><path d="M506.88 798.72l93.184 88.064L542.72 911.36l-60.416-60.416z" fill="#FFC107" p-id="6679"></path><path d="M482.304 850.944L542.72 911.36c-33.792 11.264-67.584 21.504-100.352 32.768 12.288-30.72 25.6-61.44 39.936-93.184z" fill="#37474F" p-id="6680"></path><path d="M458.752 904.192l25.6 26.624c-14.336 5.12-28.672 9.216-43.008 14.336 6.144-14.336 12.288-27.648 17.408-40.96z" fill="#606D72" p-id="6681"></path></svg>