<svg t="1760527951014" class="icon" viewBox="0 0 1024 1024" version="1.1" xmlns="http://www.w3.org/2000/svg" p-id="1768" width="48" height="48"><path d="M832 319.936l-256-256H192a128 128 0 0 0-128 128v640a128 128 0 0 0 128 128h316.032A288.32 288.32 0 0 1 352 704c0-158.784 129.216-288 288-288 73.728 0 140.992 27.84 192 73.536v-169.6z m-192 0c-35.264 0-64-28.672-64-64V154.432L741.504 320H640z" fill="#d4237a" p-id="1769"></path><path d="M832 703.936a192 192 0 1 0-90.368 162.944l114.944 114.944a32 32 0 0 0 45.248-45.248l-112.256-112.256A191.168 191.168 0 0 0 832 704z m-70.4 0a121.6 121.6 0 1 1-243.2 0 121.6 121.6 0 0 1 243.2 0z" fill="#d4237a" p-id="1770"></path></svg>