<?xml version="1.0" standalone="no"?><!DOCTYPE svg PUBLIC "-//W3C//DTD SVG 1.1//EN" "http://www.w3.org/Graphics/SVG/1.1/DTD/svg11.dtd"><svg t="1765711011002" class="icon" viewBox="0 0 1024 1024" version="1.1" xmlns="http://www.w3.org/2000/svg" p-id="7544" xmlns:xlink="http://www.w3.org/1999/xlink" width="48" height="48"><path d="M259.999492 232.001547H19.999961v679.998672c0 21.999957 17.999965 39.999922 39.999922 39.999922h904.002234c21.999957 0 39.999922-17.999965 39.999922-39.999922v-759.998516H339.999336c0 43.999914-35.99993 79.999844-79.999844 79.999844z" fill="#FBF7F6" p-id="7545"></path><path d="M1004.000039 152.001703V111.999781c0-21.999957-17.999965-39.999922-39.999922-39.999922H59.999883c-21.999957 0-39.999922 17.999965-39.999922 39.999922v119.999766h239.999531c43.999914 0 79.999844-35.99993 79.999844-79.999844h664.000703z" fill="#FFC234" p-id="7546"></path><path d="M371.999273 672.002687m-99.999804 0a99.999805 99.999805 0 1 0 199.999609 0 99.999805 99.999805 0 1 0-199.999609 0Z" fill="#99EBFB" p-id="7547"></path><path d="M652.000727 672.002687m-99.999805 0a99.999805 99.999805 0 1 0 199.999609 0 99.999805 99.999805 0 1 0-199.999609 0Z" fill="#99EBFB" p-id="7548"></path><path d="M964.002117 51.999898H269.999473c-11.045978 0-19.999961 8.955983-19.999961 19.999961s8.953983 19.999961 19.999961 19.999961h694.002644c11.027978 0 19.997961 8.971982 19.997961 19.999961v19.999961H339.997336c-11.045978 0-19.999961 8.955983-19.999961 19.999961 0 33.083935-26.915947 59.999883-59.997883 59.999883H39.999922V111.999781c0-11.027978 8.971982-19.999961 19.997961-19.999961H89.999824c11.045978 0 19.999961-8.955983 19.999961-19.999961s-8.953983-19.999961-19.999961-19.999961H59.997883C26.913947 51.999898 0 78.917846 0 111.999781v799.998438c0 33.083935 26.913947 59.999883 59.997883 59.999883h904.004234c33.083935 0 59.997883-26.915947 59.997883-59.999883V111.999781c0-33.081935-26.913947-59.999883-59.997883-59.999883z m0 879.998282H59.997883C48.971904 931.99818 39.999922 923.026197 39.999922 911.998219V251.999508h219.99957c48.289906 0 88.697827-34.411933 97.989809-79.999844h626.010777v739.998555c0 11.027978-8.969982 19.999961-19.997961 19.999961z" p-id="7549"></path><path d="M180.005648 172.001664c11.045978 0 19.999961-8.955983 19.999961-19.999961s-8.953983-19.999961-19.999961-19.999961h-0.014c-11.045978 0-19.993961 8.955983-19.99396 19.999961s8.961982 19.999961 20.00796 19.999961zM260.009492 172.001664c11.045978 0 19.999961-8.955983 19.999961-19.999961s-8.953983-19.999961-19.999961-19.999961h-0.014c-11.045978 0-19.993961 8.955983-19.993961 19.999961s8.961982 19.999961 20.007961 19.999961zM99.989805 132.001742c-11.045978 0-19.993961 8.955983-19.993961 19.999961s8.961982 19.999961 20.007961 19.999961 19.999961-8.955983 19.999961-19.999961-8.953983-19.999961-19.999961-19.999961h-0.014zM812.002414 672.000687V401.997215c0-49.625903-40.373921-90.001824-89.999824-90.001824-49.627903 0-90.001824 40.375921-90.001824 90.001824 0 11.045978 8.953983 19.999961 19.999961 19.999961 11.043978 0 19.999961-8.953983 19.99996-19.999961 0-27.569946 22.431956-50.001902 50.001903-50.001902 27.569946 0 49.999902 22.431956 49.999902 50.001902v250.005512h-1.699996c-9.553981-56.677889-58.949885-99.999805-118.301769-99.999805-47.909906 0-89.335826 28.231945-108.557788 68.925865a59.625884 59.625884 0 0 0-31.441939-8.925982 59.625884 59.625884 0 0 0-31.441939 8.925982c-19.223962-40.693921-60.647882-68.925865-108.557788-68.925865-59.351884 0-108.747788 43.321915-118.301769 99.999805H251.999508V401.997215c0-27.569946 22.429956-50.001902 49.999902-50.001902s50.001902 22.431956 50.001902 50.001902c0 11.045978 8.953983 19.999961 19.999961 19.999961s19.999961-8.953983 19.999961-19.999961c0-49.625903-40.373921-90.001824-90.001824-90.001824-49.625903 0-89.999824 40.375921-89.999824 90.001824v270.005472c0 11.043978 8.953983 19.999961 19.999961 19.999961h21.699957c9.553981 56.677889 58.949885 99.999805 118.301769 99.999805 66.167871 0 119.999766-53.831895 119.999766-119.999766 0-11.027978 8.971982-19.999961 19.999961-19.99996s20.001961 8.971982 20.001961 19.99996c0 66.167871 53.831895 119.999766 119.999766 119.999766 59.351884 0 108.747788-43.321915 118.301768-99.999805h21.699958c11.041978-0.002 19.997961-8.955983 19.997961-20.001961z m-440.003141 79.999844c-44.111914 0-79.999844-35.88793-79.999843-79.999844s35.88793-79.999844 79.999843-79.999843 79.999844 35.88793 79.999844 79.999843-35.88793 79.999844-79.999844 79.999844z m280.001454 0c-44.111914 0-79.999844-35.88793-79.999844-79.999844s35.88793-79.999844 79.999844-79.999843 79.999844 35.88793 79.999843 79.999843-35.88793 79.999844-79.999843 79.999844zM924.000195 851.998336h-109.991785c-11.045978 0-19.999961 8.955983-19.999961 19.999961s8.953983 19.999961 19.999961 19.999961h109.991785c11.043978 0 19.999961-8.955983 19.999961-19.999961 0-11.045978-8.955983-19.999961-19.999961-19.999961zM724.014586 851.998336h-0.014c-11.045978 0-19.993961 8.955983-19.993961 19.999961s8.963982 19.999961 20.007961 19.999961c11.043978 0 19.999961-8.955983 19.999961-19.999961 0-11.045978-8.955983-19.999961-19.999961-19.999961zM180.005648 91.99982c11.045978 0 19.999961-8.955983 19.999961-19.999961s-8.953983-19.999961-19.999961-19.999961h-0.014C168.94567 51.999898 159.999688 60.955881 159.999688 71.999859c0 11.045978 8.959983 19.999961 20.00596 19.999961z" p-id="7550"></path></svg>