<?xml version="1.0" standalone="no"?><!DOCTYPE svg PUBLIC "-//W3C//DTD SVG 1.1//EN" "http://www.w3.org/Graphics/SVG/1.1/DTD/svg11.dtd"><svg t="1776504385149" class="icon" viewBox="0 0 1024 1024" version="1.1" xmlns="http://www.w3.org/2000/svg" p-id="5684" xmlns:xlink="http://www.w3.org/1999/xlink" width="48" height="48"><path d="M51.38 442.91c15.64 9.11 32.84 13.67 50.06 13.67 16.82 0 33.66-4.36 49.04-13.08l221.11-125.29c15.92-9.02 28.99-22.12 37.8-37.87 8.26-14.77 12.62-31.59 12.62-48.65s-4.36-33.87-12.62-48.65c-8.81-15.76-21.88-28.86-37.8-37.87L150.47 19.88c-31.13-17.64-68.18-17.42-99.1 0.6C20.46 38.5 2 70.62 2 106.4v250.59c0 35.78 18.46 67.91 49.38 85.92zM102 107.35L321.43 231.7 102 356.04V107.35zM562 107.81h410c27.61 0 50-22.39 50-50s-22.39-50-50-50H562c-27.61 0-50 22.39-50 50s22.39 50 50 50zM972 315.58H562c-27.61 0-50 22.39-50 50s22.39 50 50 50h410c27.61 0 50-22.39 50-50s-22.39-50-50-50zM972 609.35H52c-27.61 0-50 22.39-50 50s22.39 50 50 50h920c27.61 0 50-22.39 50-50s-22.39-50-50-50zM972 917.12H52c-27.61 0-50 22.39-50 50s22.39 50 50 50h920c27.61 0 50-22.39 50-50s-22.39-50-50-50z" fill="#e98f36" p-id="5685"></path></svg>