<svg t="1778924079008" class="icon" viewBox="0 0 1024 1024" version="1.1" xmlns="http://www.w3.org/2000/svg" p-id="5932" width="200" height="200">
  <path d="M339.264 106.666667L469.333333 256h-147.264L192 106.666667h147.264z m170.666667 0L640 256h-147.264L362.666667 106.666667h147.264zM148.074667 106.666667L277.333333 256H85.333333V162.666667C85.333333 130.922667 110.037333 106.666667 142.357333 106.666667h5.717334z m553.856 0L832 256h-147.264L554.666667 106.666667h147.264z m181.333333 0C914.688 106.666667 938.666667 130.922667 938.666667 162.666667V256h-66.453334L746.666667 106.666667h136.618666z" fill="#0EBAB9" p-id="5933"></path>
  <path d="M938.666667 298.666667v564.074666C938.666667 893.674667 914.56 917.333333 883.008 917.333333H141.013333C109.44 917.333333 85.333333 893.674667 85.333333 862.741333V298.666667h853.333334z m-499.818667 106.666666C409.6 405.333333 384 419.712 384 450.24v251.52C384 732.288 409.6 746.666667 438.848 746.666667c10.986667 0 20.117333-1.792 29.269333-7.189334l208.448-118.570666a50.474667 50.474667 0 0 0 0-89.813334l-208.448-118.570666C458.965333 407.125333 448 405.333333 438.826667 405.333333z" fill="#2B87C9" p-id="5934"></path>
</svg>